<svg width="103" height="18" viewBox="0 0 103 18" fill="none" xmlns="http://www.w3.org/2000/svg">
<path d="M0 17.1988V0.477743H10.7201V2.7948H2.87788V7.66778H9.30515V9.96095H2.87788V17.1988H0Z" fill="#1C1C1C"/>
<path d="M0 17.1988V0.477743H10.7201V2.7948H2.87788V7.66778H9.30515V9.96095H2.87788V17.1988H0Z" fill="black" fill-opacity="0.2"/>
<path d="M12.3134 17.1988V0H15.1913V17.1988H12.3134Z" fill="#1C1C1C"/>
<path d="M12.3134 17.1988V0H15.1913V17.1988H12.3134Z" fill="black" fill-opacity="0.2"/>
<path d="M23.1993 17.4854C22.0162 17.4854 20.945 17.2306 19.9857 16.721C19.0424 16.1955 18.291 15.463 17.7314 14.5234C17.1718 13.5838 16.892 12.5009 16.892 11.2747C16.892 10.0326 17.1718 8.94973 17.7314 8.02609C18.291 7.08653 19.0504 6.36195 20.0097 5.85236C20.969 5.32684 22.0322 5.06408 23.1993 5.06408C24.3985 5.06408 25.4697 5.32684 26.413 5.85236C27.3563 6.36195 28.1077 7.08653 28.6673 8.02609C29.2269 8.94973 29.5067 10.0326 29.5067 11.2747C29.5067 12.5009 29.2269 13.5838 28.6673 14.5234C28.1077 15.463 27.3483 16.1955 26.389 16.721C25.4457 17.2306 24.3825 17.4854 23.1993 17.4854ZM23.1993 15.0011C23.8069 15.0011 24.3585 14.8658 24.8541 14.5951C25.3658 14.3084 25.7735 13.8944 26.0772 13.3529C26.381 12.7956 26.5329 12.1028 26.5329 11.2747C26.5329 10.4467 26.381 9.76189 26.0772 9.22045C25.7735 8.66308 25.3658 8.24904 24.8541 7.97831C24.3585 7.69167 23.8149 7.54835 23.2233 7.54835C22.6158 7.54835 22.0562 7.69167 21.5446 7.97831C21.0329 8.24904 20.6252 8.66308 20.3215 9.22045C20.0177 9.76189 19.8658 10.4467 19.8658 11.2747C19.8658 12.1028 20.0177 12.7956 20.3215 13.3529C20.6252 13.8944 21.025 14.3084 21.5206 14.5951C22.0322 14.8658 22.5918 15.0011 23.1993 15.0011Z" fill="#1C1C1C"/>
<path d="M23.1993 17.4854C22.0162 17.4854 20.945 17.2306 19.9857 16.721C19.0424 16.1955 18.291 15.463 17.7314 14.5234C17.1718 13.5838 16.892 12.5009 16.892 11.2747C16.892 10.0326 17.1718 8.94973 17.7314 8.02609C18.291 7.08653 19.0504 6.36195 20.0097 5.85236C20.969 5.32684 22.0322 5.06408 23.1993 5.06408C24.3985 5.06408 25.4697 5.32684 26.413 5.85236C27.3563 6.36195 28.1077 7.08653 28.6673 8.02609C29.2269 8.94973 29.5067 10.0326 29.5067 11.2747C29.5067 12.5009 29.2269 13.5838 28.6673 14.5234C28.1077 15.463 27.3483 16.1955 26.389 16.721C25.4457 17.2306 24.3825 17.4854 23.1993 17.4854ZM23.1993 15.0011C23.8069 15.0011 24.3585 14.8658 24.8541 14.5951C25.3658 14.3084 25.7735 13.8944 26.0772 13.3529C26.381 12.7956 26.5329 12.1028 26.5329 11.2747C26.5329 10.4467 26.381 9.76189 26.0772 9.22045C25.7735 8.66308 25.3658 8.24904 24.8541 7.97831C24.3585 7.69167 23.8149 7.54835 23.2233 7.54835C22.6158 7.54835 22.0562 7.69167 21.5446 7.97831C21.0329 8.24904 20.6252 8.66308 20.3215 9.22045C20.0177 9.76189 19.8658 10.4467 19.8658 11.2747C19.8658 12.1028 20.0177 12.7956 20.3215 13.3529C20.6252 13.8944 21.025 14.3084 21.5206 14.5951C22.0322 14.8658 22.5918 15.0011 23.1993 15.0011Z" fill="black" fill-opacity="0.2"/>
<path d="M33.3905 17.1988L29.8891 5.35073H32.743L35.2372 15.3833H34.5417L37.3956 5.35073H40.5852L43.4631 15.3833H42.7436L45.2378 5.35073H48.1157L44.6143 17.1988H41.6404L38.5947 6.80784H39.3861L36.3643 17.1988H33.3905Z" fill="#1C1C1C"/>
<path d="M33.3905 17.1988L29.8891 5.35073H32.743L35.2372 15.3833H34.5417L37.3956 5.35073H40.5852L43.4631 15.3833H42.7436L45.2378 5.35073H48.1157L44.6143 17.1988H41.6404L38.5947 6.80784H39.3861L36.3643 17.1988H33.3905Z" fill="black" fill-opacity="0.2"/>
<path d="M56.6693 17.4854C55.758 17.4854 54.9586 17.3102 54.2711 16.9599C53.5836 16.6095 53.032 16.1238 52.6163 15.5028V17.1988H49.7384V0H52.6163V7.09449C53 6.55305 53.5196 6.08326 54.1752 5.68515C54.8307 5.2711 55.6621 5.06408 56.6693 5.06408C57.8045 5.06408 58.8117 5.3348 59.6911 5.87624C60.5704 6.41769 61.2579 7.15819 61.7536 8.09775C62.2652 9.03731 62.521 10.1043 62.521 11.2986C62.521 12.4771 62.2652 13.5361 61.7536 14.4756C61.2579 15.4152 60.5704 16.1557 59.6911 16.6971C58.8117 17.2226 57.8045 17.4854 56.6693 17.4854ZM56.0937 14.9773C56.7812 14.9773 57.3888 14.818 57.9164 14.4995C58.444 14.181 58.8517 13.751 59.1395 13.2096C59.4433 12.6522 59.5952 12.0152 59.5952 11.2986C59.5952 10.5661 59.4433 9.92114 59.1395 9.36377C58.8517 8.79048 58.444 8.35255 57.9164 8.04998C57.3888 7.73148 56.7812 7.57223 56.0937 7.57223C55.4062 7.57223 54.7987 7.73148 54.2711 8.04998C53.7435 8.35255 53.3278 8.78251 53.024 9.33988C52.7202 9.89725 52.5683 10.5422 52.5683 11.2747C52.5683 12.0073 52.7202 12.6522 53.024 13.2096C53.3278 13.751 53.7435 14.181 54.2711 14.4995C54.7987 14.818 55.4062 14.9773 56.0937 14.9773Z" fill="#1C1C1C"/>
<path d="M56.6693 17.4854C55.758 17.4854 54.9586 17.3102 54.2711 16.9599C53.5836 16.6095 53.032 16.1238 52.6163 15.5028V17.1988H49.7384V0H52.6163V7.09449C53 6.55305 53.5196 6.08326 54.1752 5.68515C54.8307 5.2711 55.6621 5.06408 56.6693 5.06408C57.8045 5.06408 58.8117 5.3348 59.6911 5.87624C60.5704 6.41769 61.2579 7.15819 61.7536 8.09775C62.2652 9.03731 62.521 10.1043 62.521 11.2986C62.521 12.4771 62.2652 13.5361 61.7536 14.4756C61.2579 15.4152 60.5704 16.1557 59.6911 16.6971C58.8117 17.2226 57.8045 17.4854 56.6693 17.4854ZM56.0937 14.9773C56.7812 14.9773 57.3888 14.818 57.9164 14.4995C58.444 14.181 58.8517 13.751 59.1395 13.2096C59.4433 12.6522 59.5952 12.0152 59.5952 11.2986C59.5952 10.5661 59.4433 9.92114 59.1395 9.36377C58.8517 8.79048 58.444 8.35255 57.9164 8.04998C57.3888 7.73148 56.7812 7.57223 56.0937 7.57223C55.4062 7.57223 54.7987 7.73148 54.2711 8.04998C53.7435 8.35255 53.3278 8.78251 53.024 9.33988C52.7202 9.89725 52.5683 10.5422 52.5683 11.2747C52.5683 12.0073 52.7202 12.6522 53.024 13.2096C53.3278 13.751 53.7435 14.181 54.2711 14.4995C54.7987 14.818 55.4062 14.9773 56.0937 14.9773Z" fill="black" fill-opacity="0.2"/>
<path d="M64.1893 17.1988V5.35073H67.0672V17.1988H64.1893ZM64.1893 3.32032V0.382194H67.0911V3.32032H64.1893Z" fill="#1C1C1C"/>
<path d="M64.1893 17.1988V5.35073H67.0672V17.1988H64.1893ZM64.1893 3.32032V0.382194H67.0911V3.32032H64.1893Z" fill="black" fill-opacity="0.2"/>
<path d="M73.9001 17.1988C73.1326 17.1988 72.4851 17.1112 71.9575 16.936C71.4299 16.7449 71.0302 16.3946 70.7584 15.885C70.4866 15.3754 70.3507 14.6349 70.3507 13.6635V7.76333H68.3122V5.35073H70.3507V2.24539H73.2286V5.35073H76.3463V7.76333H73.2286V13.2813C73.2286 13.7112 73.2685 14.0297 73.3485 14.2368C73.4444 14.4438 73.6043 14.5871 73.8281 14.6667C74.052 14.7304 74.3797 14.7623 74.8114 14.7623H76.2263V17.1988H73.9001Z" fill="#1C1C1C"/>
<path d="M73.9001 17.1988C73.1326 17.1988 72.4851 17.1112 71.9575 16.936C71.4299 16.7449 71.0302 16.3946 70.7584 15.885C70.4866 15.3754 70.3507 14.6349 70.3507 13.6635V7.76333H68.3122V5.35073H70.3507V2.24539H73.2286V5.35073H76.3463V7.76333H73.2286V13.2813C73.2286 13.7112 73.2685 14.0297 73.3485 14.2368C73.4444 14.4438 73.6043 14.5871 73.8281 14.6667C74.052 14.7304 74.3797 14.7623 74.8114 14.7623H76.2263V17.1988H73.9001Z" fill="black" fill-opacity="0.2"/>
<path d="M82.9309 17.1988L89.0704 0.477743H92.284L98.4235 17.1988H95.3777L90.0537 2.07818H91.2768L85.9527 17.1988H82.9309ZM85.7608 13.2574L86.5522 10.9881H94.8022L95.5936 13.2574H85.7608Z" fill="#1C1C1C"/>
<path d="M82.9309 17.1988L89.0704 0.477743H92.284L98.4235 17.1988H95.3777L90.0537 2.07818H91.2768L85.9527 17.1988H82.9309ZM85.7608 13.2574L86.5522 10.9881H94.8022L95.5936 13.2574H85.7608Z" fill="black" fill-opacity="0.2"/>
<path d="M100.122 17.1988V0.477743H103V17.1988H100.122Z" fill="#1C1C1C"/>
<path d="M100.122 17.1988V0.477743H103V17.1988H100.122Z" fill="black" fill-opacity="0.2"/>
</svg>
