<svg width="17" height="18" viewBox="0 0 17 18" fill="none" xmlns="http://www.w3.org/2000/svg">
<path d="M0.750695 6.58943V11.4022C0.750695 13.1705 0.750695 13.1705 2.41891 14.2966L7.00649 16.949C7.69879 17.3494 8.82484 17.3494 9.5088 16.949L14.0964 14.2966C15.7646 13.1705 15.7646 13.1705 15.7646 11.4106V6.58943C15.7646 4.82947 15.7646 4.82947 14.0964 3.70343L9.5088 1.05097C8.82484 0.650602 7.69879 0.650602 7.00649 1.05097L2.41891 3.70343C0.750695 4.82947 0.750695 4.82947 0.750695 6.58943Z" stroke="#64748B" stroke-width="1.5" stroke-linecap="round" stroke-linejoin="round"/>
<path d="M8.25764 11.5023C9.63964 11.5023 10.76 10.382 10.76 9C10.76 7.61801 9.63964 6.49768 8.25764 6.49768C6.87565 6.49768 5.75533 7.61801 5.75533 9C5.75533 10.382 6.87565 11.5023 8.25764 11.5023Z" stroke="#64748B" stroke-width="1.5" stroke-linecap="round" stroke-linejoin="round"/>
</svg>