<svg width="19" height="19" viewBox="0 0 19 19" fill="none" xmlns="http://www.w3.org/2000/svg">
<path d="M13.8578 10.7202V13.3348C13.8578 16.8211 12.4633 18.2156 8.97705 18.2156H5.66513C2.1789 18.2156 0.784403 16.8211 0.784403 13.3348V10.0229C0.784403 6.53669 2.1789 5.1422 5.66513 5.1422H8.27981" stroke="#64748B" stroke-width="1.5" stroke-linecap="round" stroke-linejoin="round"/>
<path d="M13.8578 10.7202H11.0688C8.97706 10.7202 8.27981 10.0229 8.27981 7.93119V5.1422L13.8578 10.7202Z" stroke="#64748B" stroke-width="1.5" stroke-linecap="round" stroke-linejoin="round"/>
<path d="M9.15137 0.784419H12.6376" stroke="#64748B" stroke-width="1.5" stroke-linecap="round" stroke-linejoin="round"/>
<path d="M5.1422 3.39909C5.1422 1.95231 6.31008 0.784419 7.75687 0.784419H10.0404" stroke="#64748B" stroke-width="1.5" stroke-linecap="round" stroke-linejoin="round"/>
<path d="M18.2156 6.01377V11.4087C18.2156 12.7596 17.1174 13.8578 15.7665 13.8578" stroke="#64748B" stroke-width="1.5" stroke-linecap="round" stroke-linejoin="round"/>
<path d="M18.2156 6.01377H15.6009C13.6399 6.01377 12.9862 5.3601 12.9862 3.39909V0.784419L18.2156 6.01377Z" stroke="#64748B" stroke-width="1.5" stroke-linecap="round" stroke-linejoin="round"/>
</svg>
