<svg width="17" height="17" viewBox="0 0 17 17" fill="none" xmlns="http://www.w3.org/2000/svg">
<path d="M15.3272 4.09099L10.4361 0.66891C9.1029 -0.265156 7.05644 -0.214206 5.77423 0.7793L1.51998 4.09948C0.670829 4.76182 0 6.12046 0 7.19039V13.0495C0 15.2149 1.75774 16.9811 3.92308 16.9811H13.0769C15.2423 16.9811 17 15.2234 17 13.058V7.30078C17 6.15443 16.2612 4.74483 15.3272 4.09099ZM10.1558 14.6035C10.1558 14.6035 8.84828 14.6036 8.50013 14.6036C8.15198 14.6036 6.84416 14.6035 6.84416 14.6035V10.5276C6.84416 10.5276 8.15198 10.5276 8.50013 10.5276C8.84828 10.5276 10.1558 10.5276 10.1558 10.5276V14.6035Z" fill="#1B1464"/>
</svg>