<svg width="19" height="19" viewBox="0 0 19 19" fill="none" xmlns="http://www.w3.org/2000/svg">
<path d="M14.8514 17.8844C14.0844 18.111 13.178 18.2156 12.1147 18.2156H6.88532C5.82202 18.2156 4.9156 18.111 4.14863 17.8844C4.34037 15.6183 6.66743 13.8316 9.5 13.8316C12.3326 13.8316 14.6596 15.6183 14.8514 17.8844Z" stroke="#64748B" stroke-width="1.5" stroke-linecap="round" stroke-linejoin="round"/>
<path d="M12.1147 0.784404H6.88532C2.52752 0.784404 0.784404 2.52752 0.784404 6.88532V12.1147C0.784404 15.4092 1.77798 17.2133 4.14862 17.8844C4.34037 15.6183 6.66743 13.8316 9.5 13.8316C12.3326 13.8316 14.6596 15.6183 14.8514 17.8844C17.222 17.2133 18.2156 15.4092 18.2156 12.1147V6.88532C18.2156 2.52752 16.4725 0.784404 12.1147 0.784404ZM9.5 11.3913C7.77431 11.3913 6.37981 9.98809 6.37981 8.2624C6.37981 6.53671 7.77431 5.1422 9.5 5.1422C11.2257 5.1422 12.6202 6.53671 12.6202 8.2624C12.6202 9.98809 11.2257 11.3913 9.5 11.3913Z" stroke="#64748B" stroke-width="1.5" stroke-linecap="round" stroke-linejoin="round"/>
<path d="M12.6202 8.26242C12.6202 9.98811 11.2257 11.3913 9.5 11.3913C7.77432 11.3913 6.37982 9.98811 6.37982 8.26242C6.37982 6.53673 7.77432 5.14222 9.5 5.14222C11.2257 5.14222 12.6202 6.53673 12.6202 8.26242Z" stroke="#64748B" stroke-width="1.5" stroke-linecap="round" stroke-linejoin="round"/>
</svg>