<svg width="3" height="12" viewBox="0 0 3 12" fill="none" xmlns="http://www.w3.org/2000/svg">
<path d="M1.32036 6.66852C1.68957 6.66852 1.98888 6.36921 1.98888 6C1.98888 5.63078 1.68957 5.33148 1.32036 5.33148C0.951143 5.33148 0.651835 5.63078 0.651835 6C0.651835 6.36921 0.951143 6.66852 1.32036 6.66852Z" stroke="#1C1C1C" stroke-width="1.3" stroke-linecap="round" stroke-linejoin="round"/>
<path d="M1.32036 6.66852C1.68957 6.66852 1.98888 6.36921 1.98888 6C1.98888 5.63078 1.68957 5.33148 1.32036 5.33148C0.951143 5.33148 0.651835 5.63078 0.651835 6C0.651835 6.36921 0.951143 6.66852 1.32036 6.66852Z" stroke="black" stroke-opacity="0.2" stroke-width="1.3" stroke-linecap="round" stroke-linejoin="round"/>
<path d="M1.32036 1.98886C1.68957 1.98886 1.98888 1.68955 1.98888 1.32033C1.98888 0.951118 1.68957 0.65181 1.32036 0.65181C0.951143 0.65181 0.651835 0.951118 0.651835 1.32033C0.651835 1.68955 0.951143 1.98886 1.32036 1.98886Z" stroke="#1C1C1C" stroke-width="1.3" stroke-linecap="round" stroke-linejoin="round"/>
<path d="M1.32036 1.98886C1.68957 1.98886 1.98888 1.68955 1.98888 1.32033C1.98888 0.951118 1.68957 0.65181 1.32036 0.65181C0.951143 0.65181 0.651835 0.951118 0.651835 1.32033C0.651835 1.68955 0.951143 1.98886 1.32036 1.98886Z" stroke="black" stroke-opacity="0.2" stroke-width="1.3" stroke-linecap="round" stroke-linejoin="round"/>
<path d="M1.32036 11.3482C1.68957 11.3482 1.98888 11.0489 1.98888 10.6797C1.98888 10.3104 1.68957 10.0111 1.32036 10.0111C0.951143 10.0111 0.651835 10.3104 0.651835 10.6797C0.651835 11.0489 0.951143 11.3482 1.32036 11.3482Z" stroke="#1C1C1C" stroke-width="1.3" stroke-linecap="round" stroke-linejoin="round"/>
<path d="M1.32036 11.3482C1.68957 11.3482 1.98888 11.0489 1.98888 10.6797C1.98888 10.3104 1.68957 10.0111 1.32036 10.0111C0.951143 10.0111 0.651835 10.3104 0.651835 10.6797C0.651835 11.0489 0.951143 11.3482 1.32036 11.3482Z" stroke="black" stroke-opacity="0.2" stroke-width="1.3" stroke-linecap="round" stroke-linejoin="round"/>
</svg>
